<?xml version="1.0" encoding="utf-8"?>
<svg version="1.1" id="svg1" width="1955px" height="1955px" viewBox="855.6 370.8 1220 1220" xmlns="http://www.w3.org/2000/svg" xmlns:bx="https://boxy-svg.com" preserveAspectRatio="none"><defs id="defs1"><bx:export><bx:file format="svg"/></bx:export></defs><g transform="matrix(1, 0, 0, 1, -14.950496, 26.293522)"><path id="path3" d="M 2082.05 951.037 C 2082.05 1142.01 1993.23 1312.24 1854.63 1422.65 C 1751.68 1504.69 1621.25 1553.71 1479.38 1553.71 C 1337.52 1553.71 1207.09 1504.69 1104.14 1422.65 C 965.542 1312.24 876.716 1142.01 876.716 951.037 C 876.716 618.197 1146.54 348.37 1479.38 348.37 C 1812.23 348.37 2082.05 618.197 2082.05 951.037" style="fill: rgb(202, 213, 213); fill-opacity: 1; fill-rule: nonzero; stroke: none; stroke-width: 0.133;"/><path id="path4" d="M 1732.72 816.37 C 1732.72 956.282 1619.29 1069.71 1479.38 1069.71 C 1339.47 1069.71 1226.05 956.282 1226.05 816.37 C 1226.05 676.458 1339.47 563.037 1479.38 563.037 C 1619.29 563.037 1732.72 676.458 1732.72 816.37" style="fill: rgb(161, 176, 177); fill-opacity: 1; fill-rule: nonzero; stroke: none; stroke-width: 0.133;"/><path id="path5" d="M 1854.63 1422.65 C 1751.68 1504.69 1621.25 1553.71 1479.38 1553.71 C 1337.52 1553.71 1207.09 1504.69 1104.14 1422.65 C 1152.88 1261.61 1302.44 1144.37 1479.38 1144.37 C 1656.33 1144.37 1805.9 1261.61 1854.63 1422.65" style="fill: rgb(161, 176, 177); fill-opacity: 1; fill-rule: nonzero; stroke: none; stroke-width: 0.133;"/></g></svg>